<svg width="105" height="52" viewBox="0 0 105 52" version="1.1" xmlns="http://www.w3.org/2000/svg" xmlns:xlink="http://www.w3.org/1999/xlink">
<title>Camada 2</title>
<desc>Created using Figma</desc>
<g id="Canvas" transform="translate(3541 493)">
<g id="Camada 2">
<g id="Camada 1">
<g id="Vector">
<use xlink:href="#path0_fill" transform="translate(-3527.78 -476.937)" fill="#FFFFFF"/>
</g>
<g id="Vector">
<use xlink:href="#path1_fill" transform="translate(-3506.35 -476.936)" fill="#FF7900"/>
</g>
<g id="Vector">
<use xlink:href="#path2_fill" transform="translate(-3482.51 -482.601)" fill="#FFFFFF"/>
</g>
<g id="Vector">
<use xlink:href="#path3_fill" transform="translate(-3467.52 -476.936)" fill="#FFFFFF"/>
</g>
<g id="Vector">
<use xlink:href="#path4_fill" transform="translate(-3456.17 -476.937)" fill="#FFFFFF"/>
</g>
<g id="Vector">
<use xlink:href="#path5_fill" transform="translate(-3488.63 -449.747)" fill="#FFFFFF"/>
</g>
<g id="Vector">
<use xlink:href="#path6_fill" transform="translate(-3478.82 -453.626)" fill="#FFFFFF"/>
</g>
<g id="Vector">
<use xlink:href="#path7_fill" transform="translate(-3474.06 -449.851)" fill="#FFFFFF"/>
</g>
<g id="Vector">
<use xlink:href="#path8_fill" transform="translate(-3466.33 -452.397)" fill="#FFFFFF"/>
</g>
<g id="Vector">
<use xlink:href="#path9_fill" transform="translate(-3459.42 -449.746)" fill="#FFFFFF"/>
</g>
<g id="Vector">
<use xlink:href="#path10_fill" transform="translate(-3449.86 -449.851)" fill="#FFFFFF"/>
</g>
<g id="Vector">
<use xlink:href="#path11_fill" transform="translate(-3439.73 -453.609)" fill="#FFFFFF"/>
</g>
<g id="Vector">
<use xlink:href="#path12_fill" transform="translate(-3541 -493)" fill="#77CBEA"/>
</g>
</g>
</g>
</g>
<defs>
<path id="path0_fill" d="M 15.3034 6.72964C 14.788 5.86931 14.0814 5.14207 13.2396 4.60551C 12.4351 4.10738 11.4875 3.85832 10.3968 3.85832C 8.65744 3.85832 7.20501 4.45518 6.03955 5.6489C 4.87409 6.84261 4.29091 8.30451 4.29003 10.0346C 4.29003 11.7656 4.87409 13.2279 6.04219 14.4216C 7.2103 15.6154 8.66273 16.2122 10.3995 16.2122C 11.3908 16.2319 12.368 15.9733 13.2225 15.465C 14.0727 14.9328 14.7859 14.2044 15.3034 13.3396L 18.8473 15.465C 17.9615 16.8568 16.7426 18.0004 15.3034 18.79C 13.8057 19.64 12.1145 20.0806 10.3968 20.0682C 8.91609 20.0882 7.44646 19.8073 6.0752 19.2423C 4.85688 18.7397 3.75231 17.9922 2.82852 17.0452C 1.90473 16.0982 1.18099 14.9714 0.701217 13.7332C -0.233738 11.358 -0.233738 8.71124 0.701217 6.33604C 1.18099 5.09781 1.90473 3.971 2.82852 3.02398C 3.75231 2.07696 4.85688 1.32948 6.0752 0.826891C 7.44649 0.261961 8.9161 -0.0188944 10.3968 0.000986514C 12.2912 0.000986514 13.9267 0.407489 15.3034 1.2205C 16.7174 2.07019 17.9277 3.22575 18.8473 4.60417L 15.3034 6.72964Z"/>
<path id="path1_fill" d="M 0.701218 6.33537C 1.18091 5.09731 1.90447 3.97061 2.82802 3.02361C 3.75156 2.0766 4.85584 1.32903 6.07388 0.826225C 8.8523 -0.275409 11.9401 -0.275409 14.7185 0.826225C 15.9365 1.32903 17.0408 2.0766 17.9643 3.02361C 18.8879 3.97061 19.6114 5.09731 20.0911 6.33537C 21.0261 8.71058 21.0261 11.3573 20.0911 13.7325C 19.6114 14.9706 18.8879 16.0973 17.9643 17.0443C 17.0408 17.9913 15.9365 18.7388 14.7185 19.2416C 11.9401 20.3433 8.8523 20.3433 6.07388 19.2416C 4.85584 18.7388 3.75156 17.9913 2.82802 17.0443C 1.90447 16.0973 1.18091 14.9706 0.701218 13.7325C -0.233737 11.3573 -0.233737 8.71058 0.701218 6.33537Z"/>
<path id="path2_fill" d="M 2.64078 13.9683L 0 13.9683L 0 10.1123L 2.64078 10.1123L 2.64078 6.88477C 2.64078 4.94387 3.23759 3.31118 4.43123 1.98671C 5.62486 0.662237 7.36381 3.25746e-07 9.64809 3.25746e-07C 10.1954 0.00180312 10.742 0.0410306 11.284 0.117415C 11.793 0.179475 12.291 0.311916 12.7642 0.51102L 11.0913 4.20958C 10.5242 3.96936 9.91438 3.84902 9.2995 3.856C 8.94382 3.84327 8.58981 3.91079 8.26319 4.05365C 7.93658 4.19652 7.64558 4.41114 7.41135 4.68191C 6.93504 5.22257 6.67807 5.92488 6.69173 6.6486L 6.69173 10.1177L 10.7414 10.1177L 10.7414 13.9737L 6.69173 13.9737L 6.69173 25.2935L 2.64078 25.2935L 2.64078 13.9683Z"/>
<path id="path3_fill" d="M -2.57889e-06 0.512419L 3.81593 0.512419L 3.81593 2.59786L 3.89779 2.59786C 4.21279 1.83894 4.73197 1.18442 5.39643 0.708555C 6.03668 0.243437 6.80636 -0.00460789 7.59488 6.5036e-05C 8.47514 6.5036e-05 9.215 0.196645 9.81445 0.589806L 8.37259 4.64328C 8.15324 4.46559 7.90224 4.33198 7.63317 4.24967C 7.3831 4.15684 7.12031 4.10373 6.85414 4.09223C 6.48104 4.08629 6.11062 4.15684 5.76525 4.29962C 5.41988 4.44239 5.10674 4.65443 4.84474 4.92293C 4.58274 5.19142 4.37732 5.51079 4.24089 5.86176C 4.10445 6.21272 4.03984 6.58799 4.05095 6.96489L 4.05095 19.5603L -2.57889e-06 19.5603L -2.57889e-06 0.512419Z"/>
<path id="path4_fill" d="M 19.1576 15.425C 18.0727 16.8194 16.7136 17.9715 15.1661 18.8087C 13.699 19.6082 12.0634 20.0401 10.3968 20.0682C 8.91564 20.0884 7.44555 19.8075 6.07388 19.2423C 4.85568 18.7398 3.75126 17.9923 2.82768 17.0453C 1.90411 16.0982 1.18064 14.9714 0.701215 13.7332C -0.23374 11.358 -0.23374 8.71127 0.701215 6.33606C 1.18064 5.09784 1.90411 3.971 2.82768 3.02396C 3.75126 2.07693 4.85568 1.32945 6.07388 0.826912C 7.44557 0.261771 8.91565 -0.019089 10.3968 0.00100727C 11.5105 0.0161386 12.6121 0.236333 13.6476 0.65079C 14.8208 1.11244 15.9013 1.7856 16.8364 2.6375C 17.8709 3.57853 18.6943 4.73222 19.2514 6.02117C 19.8605 7.38568 20.1655 8.94631 20.1664 10.7031L 20.1664 11.4503L 4.51714 11.4503C 4.62101 12.8672 5.24379 14.0543 6.38549 15.0114C 7.47021 15.9478 8.85272 16.4575 10.2793 16.4471C 12.4597 16.4471 14.2766 15.4633 15.7299 13.4957L 19.1576 15.425ZM 15.4196 8.06659C 15.0041 6.6247 14.2968 5.52305 13.2977 4.76164C 12.3069 4.00389 11.094 3.60237 9.85151 3.62085C 8.61954 3.59756 7.41922 4.01589 6.4634 4.80166C 5.50303 5.58888 4.85428 6.67763 4.51714 8.06792L 15.4196 8.06659Z"/>
<path id="path5_fill" d="M 4.23977 8.63932L 3.128 8.63932L -8.05902e-07 1.7916e-06L 1.35472 1.7916e-06L 3.68257 6.93814L 6.0289 1.7916e-06L 7.38362 1.7916e-06L 4.23977 8.63932Z"/>
<path id="path6_fill" d="M 4.83541e-07 1.42232L 4.83541e-07 8.14366e-07L 1.40754 8.14366e-07L 1.40754 1.42232L 4.83541e-07 1.42232ZM 0.069981 12.5193L 0.069981 3.88002L 1.32171 3.88002L 1.32171 12.5193L 0.069981 12.5193Z"/>
<path id="path7_fill" d="M 4.77585 1.75588C 4.30711 1.28222 3.95985 1.12344 3.29833 1.12344C 2.0466 1.12344 1.24777 2.12414 1.24777 3.44105L 1.24777 8.74339L 0 8.74339L 0 0.105405L 1.25173 0.105405L 1.25173 1.15947C 1.72046 0.438969 2.65927 1.95448e-06 3.64956 1.95448e-06C 4.46556 1.95448e-06 5.09142 0.193468 5.70012 0.807226L 4.77585 1.75588Z"/>
<path id="path8_fill" d="M 3.26664 11.2892C 1.80761 11.2892 1.07744 10.2538 1.07744 8.97154L 1.07744 3.66921L -1.28944e-06 3.66921L -1.28944e-06 2.70321L 1.07744 2.70321L 1.07744 -3.25746e-07L 2.32785 -3.25746e-07L 2.32785 2.70454L 4.15263 2.70454L 4.15263 3.67054L 2.32785 3.67054L 2.32785 8.93819C 2.32785 9.72807 2.69227 10.2031 3.49243 10.2031L 4.15263 10.2031L 4.15263 11.2918L 3.26664 11.2892Z"/>
<path id="path9_fill" d="M 5.49018 8.63798L 5.49018 7.67198C 5.18853 8.01649 4.81623 8.29044 4.39916 8.47478C 3.9821 8.65912 3.53029 8.74942 3.07519 8.73938C 2.15091 8.73938 1.39037 8.45786 0.868814 7.93216C 0.260114 7.33575 3.54597e-06 6.50984 3.54597e-06 5.50915L 3.54597e-06 -9.77239e-07L 1.25041 -9.77239e-07L 1.25041 5.31968C 1.25041 6.84741 2.04924 7.61994 3.3353 7.61994C 4.62136 7.61994 5.47301 6.83006 5.47301 5.31968L 5.47301 -9.77239e-07L 6.72342 -9.77239e-07L 6.72342 8.63931L 5.49018 8.63798Z"/>
<path id="path10_fill" d="M 5.52583 8.74339L 5.52583 7.91748C 4.8313 8.6193 4.20544 8.85146 3.05802 8.85146C 1.87627 8.85146 1.18175 8.6233 0.643029 8.06158C 0.225786 7.63996 0 6.99417 0 6.3057C 0 4.79532 1.04311 3.81197 2.95371 3.81197L 5.52583 3.81197L 5.52583 2.98607C 5.52583 1.72119 4.89997 1.09009 3.33663 1.09009C 2.24202 1.09009 1.68614 1.35694 1.18175 2.07343L 0.330097 1.28222C 1.0946 0.281528 1.96342 1.95448e-06 3.35379 1.95448e-06C 5.64731 1.95448e-06 6.77624 1.00069 6.77624 2.87933L 6.77624 8.75006L 5.52583 8.74339ZM 5.52583 4.75796L 3.128 4.75796C 1.84194 4.75796 1.21608 5.28499 1.21608 6.28568C 1.21608 7.28638 1.82478 7.76004 3.1795 7.76004C 3.90968 7.76004 4.5527 7.708 5.09142 7.18097C 5.38719 6.89944 5.52583 6.40843 5.52583 5.68794L 5.52583 4.75796Z"/>
<path id="path11_fill" d="M 2.17204 12.5007C 0.677363 12.5007 1.6118e-06 11.5173 1.6118e-06 10.2004L 1.6118e-06 1.46586e-06L 1.25173 1.46586e-06L 1.25173 10.1484C 1.25173 10.9916 1.53033 11.4132 2.39915 11.4132L 3.07651 11.4132L 3.07651 12.502L 2.17204 12.5007Z"/>
<path id="path12_fill" d="M 46.5979 51.8759L 0 51.8759L 0 0L 46.6005 0L 46.6005 12.981C 45.6861 12.8556 44.7592 12.8556 43.8448 12.981L 43.8448 2.80995L 2.77282 2.80995L 2.77282 49.0526L 43.8462 49.0526L 43.8462 39.3779C 44.7563 39.5506 45.6907 39.5461 46.5992 39.3646"/>
</defs>
</svg>
